<svg width="23" height="20" viewBox="0 0 23 20" fill="none" xmlns="http://www.w3.org/2000/svg">
<path d="M11.3139 4.18333L10.6641 3.55288C10.5296 3.42238 10.4001 3.29733 10.2744 3.17585C10.0546 2.96351 9.84605 2.76206 9.6414 2.56141C8.00066 0.953633 5.7423 0.49843 3.93293 1.27967L3.93277 1.27973C2.11901 2.06244 0.856964 4.05591 0.901053 6.28774L0.901054 6.2878C0.934362 7.97965 1.64321 9.4798 2.67628 10.964L2.67657 10.9644C4.9314 14.2077 7.9903 16.6439 11.2533 19.0298C13.6307 17.2988 15.895 15.5125 17.8502 13.3974L18.5111 14.0083L17.8502 13.3974C19.5093 11.6026 20.8745 9.7871 21.4325 7.53909L21.4325 7.53886C22.0206 5.17223 21.0148 2.70667 19.1001 1.55451L11.3139 4.18333ZM11.3139 4.18333L11.9405 3.52971M11.3139 4.18333L11.9405 3.52971M11.9405 3.52971C12.0846 3.37935 12.212 3.24125 12.3317 3.11141C12.5615 2.86221 12.7632 2.64342 13.0019 2.42667L13.0022 2.42636M11.9405 3.52971L13.0022 2.42636M13.0022 2.42636C14.8652 0.732412 17.2782 0.4589 19.0999 1.55442L13.0022 2.42636ZM11.0872 19.1505C11.0874 19.1503 11.0877 19.1502 11.0879 19.15C11.0877 19.1501 11.0875 19.1503 11.0873 19.1504L11.0872 19.1505ZM11.1764 19.1002L11.1834 19.0999C11.1896 19.0997 11.2037 19.0997 11.2249 19.1022C11.2452 19.1045 11.2813 19.1102 11.3277 19.1253C11.3732 19.1402 11.444 19.169 11.5214 19.2254L11.1764 19.1002Z" fill="#FE0135" stroke="#FE0135" stroke-width="1.8"/>
</svg>
