<svg version="1.1" id="Layer_1" xmlns="http://www.w3.org/2000/svg" xmlns:xlink="http://www.w3.org/1999/xlink" x="0px" y="0px"
	 width="100%" viewBox="0 0 512 512" enable-background="new 0 0 512 512" xml:space="preserve">
<path fill="#000000" opacity="1.000000" stroke="none" 
	d="
M282.000000,513.000000 
	C189.355820,513.000000 97.211617,512.979187 5.067554,513.085327 
	C1.792350,513.089111 0.894826,512.631775 0.897325,509.069336 
	C1.015169,341.110382 1.016903,173.151352 0.891511,5.192445 
	C0.888703,1.431156 1.854070,0.913809 5.305611,0.915790 
	C173.097961,1.012070 340.890350,1.011581 508.682709,0.918469 
	C512.102600,0.916571 513.113770,1.387098 513.110840,5.180738 
	C512.982605,173.139664 512.985107,341.098694 513.101318,509.057648 
	C513.103760,512.596191 512.244568,513.092529 508.944122,513.087524 
	C433.462860,512.973816 357.981415,513.000000 282.000000,513.000000 
z"/>
<path fill="#969696" opacity="1.000000" stroke="none" 
	d="
M492.000000,402.000000 
	C491.999878,411.331635 492.053345,420.163696 491.989960,428.994873 
	C491.769531,459.724731 469.195221,486.030609 438.823120,491.123169 
	C435.022430,491.760437 431.301270,491.988251 427.518036,491.988678 
	C313.206604,492.002411 198.894638,492.183441 84.584175,491.848602 
	C61.062634,491.779724 42.947086,480.536957 30.740566,460.287842 
	C24.521387,449.971008 21.916346,438.753754 21.929010,426.640472 
	C22.048353,312.495789 21.828459,198.350449 22.141851,84.206512 
	C22.206007,60.840111 33.554596,43.042542 53.508823,30.883762 
	C63.803562,24.610836 74.997795,21.924744 87.109825,21.936094 
	C201.587784,22.043369 316.066864,21.756571 430.543182,22.200760 
	C454.067261,22.292036 471.981323,34.299950 483.814636,54.639301 
	C489.855133,65.021820 492.109314,76.427643 492.090912,88.560059 
	C491.932648,192.873169 492.000000,297.186646 492.000000,402.000000 
z"/>
<path fill="#000000" opacity="1.000000" stroke="none" 
	d="
M360.747864,321.248047 
	C381.265991,341.286469 394.608673,365.089142 401.657043,392.413940 
	C404.066681,401.755432 404.790070,411.427612 406.030975,420.989502 
	C406.619019,425.520447 405.482697,427.191132 400.346954,427.141357 
	C370.529358,426.852386 340.707550,427.000000 310.887146,427.000000 
	C245.248962,427.000000 179.610779,427.000336 113.972603,426.999451 
	C107.468170,426.999359 107.334221,426.981720 108.033562,420.318024 
	C109.603348,405.360199 111.906929,390.533112 117.288818,376.381042 
	C123.490570,360.073090 132.245209,345.336456 143.465302,331.881409 
	C157.837753,314.646149 175.292511,301.650879 195.477661,292.272858 
	C209.735550,285.648651 224.777145,281.707214 240.483688,279.903503 
	C263.776459,277.228577 286.317657,279.975311 308.220520,288.018524 
	C324.280396,293.916107 338.928436,302.342560 352.053467,313.427368 
	C354.952087,315.875427 357.798218,318.344818 360.747864,321.248047 
z"/>
<path fill="#000000" opacity="1.000000" stroke="none" 
	d="
M281.317139,90.690811 
	C293.443359,94.029579 303.535950,100.080429 312.685394,108.068840 
	C327.923218,121.373039 337.311615,138.007736 340.771088,157.754669 
	C344.262207,177.682068 340.339783,196.563690 330.345490,214.083969 
	C322.176910,228.403702 310.519348,239.371338 295.945740,246.895874 
	C285.006317,252.544022 273.351074,255.720886 260.762604,256.185425 
	C246.253326,256.720917 232.422073,254.422867 219.749649,247.802109 
	C195.072250,234.909317 179.227570,215.079315 173.876602,187.153976 
	C169.509735,164.364304 174.126053,143.786850 186.755508,124.626282 
	C199.778717,104.868370 218.370697,93.096947 241.051926,88.283440 
	C254.257492,85.480904 267.868713,86.015617 281.317139,90.690811 
z"/>
</svg>