<svg width="103" height="36" viewBox="0 0 103 36" fill="none" xmlns="http://www.w3.org/2000/svg">
<g clip-path="url(#clip0_10_4377)">
<path fill-rule="evenodd" clip-rule="evenodd" d="M5.57125 4.09958C3.46875 4.97865 1.16688 7.45271 0.441875 10.5611C-0.4825 14.4943 3.35094 16.1527 3.66813 15.609C4.03063 14.9746 2.97938 14.7571 2.76188 12.709C2.49 10.0808 3.71344 7.12646 5.25406 5.83958C5.54406 5.5949 5.52594 5.93021 5.52594 6.54646L5.47156 19.6508C5.47156 22.4602 5.35375 23.3393 5.14531 24.2183C4.93687 25.1065 4.60156 25.7046 4.84625 25.9402C5.13625 26.194 6.36875 25.5777 7.07563 24.5808C7.88329 23.3489 8.30313 21.9031 8.28094 20.4302C8.34438 18.5633 8.33531 15.5999 8.34438 13.9143C8.34438 12.3736 8.37156 7.83333 8.31719 5.10552C8.29906 4.4349 6.44125 3.73708 5.57125 4.10865V4.09958ZM80.0016 17.2221C79.9726 18.3977 79.7011 19.5547 79.2041 20.6205C78.4338 22.1793 76.8206 22.6596 76.1319 20.4211C75.7694 19.2068 75.7422 17.1677 76.0141 15.464C76.2859 13.7421 77.0472 12.428 78.3069 12.5458C79.5575 12.6636 80.1375 14.2677 80.0016 17.2221ZM59.0219 26.2665C59.0038 28.6861 58.6231 30.8068 57.8075 31.4321C56.6384 32.3021 55.0887 31.6405 55.4059 29.8733C55.6869 28.3146 57.0372 26.7196 59.0309 24.7621L59.0219 26.2665ZM58.7047 17.204C58.6517 18.3822 58.3813 19.5405 57.9072 20.6205C57.1369 22.1793 55.5147 22.6596 54.835 20.4211C54.3819 18.8896 54.4906 16.914 54.7172 15.6633C55.0163 14.0502 55.7322 12.5458 57.01 12.5458C58.2606 12.5458 58.8769 13.9052 58.7047 17.204ZM46.5519 17.1858C46.5289 18.3758 46.2605 19.5482 45.7634 20.6296C44.9659 22.1702 43.38 22.6596 42.6822 20.4211C42.1837 18.8171 42.3559 16.6149 42.5644 15.4368C42.8725 13.6696 43.6519 12.428 44.8572 12.5368C46.1078 12.6636 46.7059 14.2586 46.5519 17.1858ZM102.241 18.8261C101.942 18.8261 101.797 19.1433 101.688 19.669C101.289 21.4996 100.873 21.9165 100.329 21.9165C99.7306 21.9165 99.1869 21.0102 99.0419 19.1977C98.9331 17.7658 98.9513 15.1377 99.0963 12.5186C99.1234 11.984 98.9694 11.4583 97.5284 10.9327C96.9122 10.7061 96.0059 10.3708 95.5619 11.4583C94.6645 13.5275 94.0311 15.7015 93.6769 17.929C93.6769 17.9833 93.6044 17.9924 93.5863 17.8746C93.5228 17.0861 93.3506 15.6452 93.3325 12.6274C93.3325 12.0383 93.2056 11.5399 92.5531 11.1321C92.1272 10.8602 90.8494 10.398 90.3781 10.9508C89.9884 11.404 89.5262 12.6455 89.0459 14.1046L88.3753 16.0983L88.3844 11.6758C88.3844 11.2227 88.0763 11.0686 87.9766 11.0415C87.4449 10.8775 86.8986 10.7652 86.3453 10.7061C85.9103 10.7061 85.8016 10.9508 85.8016 11.3133C85.8016 11.3586 85.7291 15.5274 85.7291 18.4455V18.8624C85.4844 20.2036 84.6959 22.0252 83.835 22.0252C82.9741 22.0252 82.5662 21.264 82.5662 17.784C82.5662 15.754 82.6297 14.8749 82.6569 13.4068C82.675 12.5549 82.7113 11.9115 82.7113 11.7665C82.7022 11.3133 81.9228 11.0868 81.5603 10.9961C81.1978 10.9146 80.8716 10.8783 80.6269 10.8965C80.2644 10.9146 80.0197 11.1411 80.0197 11.4583V11.9568C79.6286 11.3382 79.0463 10.8641 78.3613 10.6065C77.0563 10.2168 75.6969 10.5611 74.6728 11.993C73.7889 13.2575 73.2686 14.7401 73.1684 16.2796C73.0234 17.639 73.0778 19.0074 73.3225 20.1765C73.0234 21.4815 72.4525 22.0252 71.8363 22.0252C70.9391 22.0252 70.2956 20.5571 70.3681 18.0377C70.4225 16.3702 70.7488 15.2011 71.1113 13.5155C71.2653 12.7905 71.1475 12.428 70.8303 12.0655C70.5403 11.7302 69.9241 11.558 69.0269 11.7665C68.3925 11.9115 67.4862 12.0746 66.6706 12.1924C66.6706 12.1924 66.7159 12.0021 66.7612 11.6486C66.9697 9.80896 64.9669 9.95396 64.3234 10.543C63.9428 10.8965 63.6891 11.3043 63.5803 12.0565C63.4263 13.2346 64.3959 13.7874 64.3959 13.7874C63.7732 16.1397 62.7292 18.3596 61.3147 20.3396V19.7052C61.3056 16.6602 61.3419 14.2677 61.36 13.4068C61.3781 12.5549 61.4144 11.9296 61.4144 11.7755C61.4144 11.4493 61.215 11.3224 60.8162 11.1683C60.4537 11.0233 60.0369 10.9327 59.6019 10.8965C59.0581 10.8511 58.7228 11.1411 58.7319 11.4855V11.9568C58.3389 11.3362 57.7531 10.8618 57.0644 10.6065C55.7594 10.2168 54.4 10.5611 53.3759 11.993C52.5237 13.2701 52.0063 14.7411 51.8716 16.2705C51.7356 17.6933 51.7538 18.8986 51.9531 19.9318C51.7447 20.9558 51.1466 22.0161 50.4759 22.0161C49.615 22.0161 49.1166 21.264 49.1166 17.784C49.1166 15.754 49.18 14.8749 49.2072 13.4068C49.2253 12.5549 49.2616 11.9115 49.2616 11.7665C49.2616 11.3133 48.4731 11.0868 48.1106 10.9961C47.73 10.9055 47.3947 10.8783 47.15 10.9055C46.8147 10.9236 46.5791 11.2227 46.5791 11.4493V11.9568C46.1861 11.3362 45.6003 10.8618 44.9116 10.6065C43.6066 10.2168 42.2563 10.5702 41.2231 11.993C40.5434 12.9265 39.9997 13.9596 39.7188 16.2524C39.6426 16.8657 39.6063 17.4832 39.61 18.1011C39.3381 19.7415 38.1509 21.6355 37.1812 21.6355C36.6103 21.6355 36.0666 20.539 36.0666 18.1918C36.0666 15.0652 36.2659 10.6155 36.2931 10.1896L37.7612 10.1624C38.3775 10.1624 38.9303 10.1715 39.7459 10.1261C40.1537 10.108 40.5434 8.6399 40.1266 8.45865C39.9362 8.37708 38.5859 8.30458 38.0422 8.29552C37.5891 8.28646 36.3384 8.19583 36.3384 8.19583C36.3384 8.19583 36.4563 5.24146 36.4834 4.93333C36.5016 4.66146 36.1663 4.53458 35.9669 4.45302C35.5196 4.27298 35.0549 4.13936 34.5803 4.05427C33.8916 3.91833 33.5834 4.05427 33.52 4.63427C33.4294 5.51333 33.3841 8.09615 33.3841 8.09615C32.8766 8.09615 31.1456 7.99646 30.6472 7.99646C30.1759 7.99646 29.6684 10.0083 30.3209 10.0355L33.2209 10.1171L33.1938 16.0349V16.4608C32.7134 18.9349 31.0459 20.2671 31.0459 20.2671C31.4084 18.6358 30.6653 17.4124 29.3512 16.3702C28.8619 15.9896 27.9013 15.2646 26.8228 14.4671C26.8228 14.4671 27.4481 13.8508 28.0009 12.6183C28.3906 11.7483 28.4087 10.7515 27.4481 10.534C25.8622 10.1624 24.5481 11.3224 24.1584 12.573C24.0064 12.9779 23.9682 13.4166 24.0481 13.8417C24.128 14.2667 24.3229 14.6617 24.6116 14.9836L24.7475 15.1558C24.385 15.8446 23.8956 16.769 23.4788 17.494C22.3278 19.4877 21.4488 21.0736 20.7872 21.0736C20.2616 21.0736 20.2706 19.4696 20.2706 17.9652C20.2706 16.6693 20.3613 14.7208 20.4428 12.709C20.47 12.0383 20.1347 11.6577 19.5728 11.3133C19.126 11.0043 18.6199 10.7913 18.0866 10.688C17.4522 10.688 15.6397 10.7786 13.9178 15.7358C13.7094 16.3611 13.2834 17.494 13.2834 17.494L13.3197 11.5399C13.3197 11.3949 13.2472 11.268 13.075 11.1774C12.5342 10.8899 11.9375 10.7229 11.3259 10.688C10.9997 10.688 10.8366 10.8421 10.8366 11.1411L10.7731 20.4755C10.7731 21.1824 10.7913 22.0071 10.8638 22.3696C10.9363 22.7321 11.045 23.0221 11.19 23.1943C11.3259 23.3755 11.4891 23.5024 11.7519 23.5568C12.0056 23.6111 13.365 23.7833 13.4375 23.2668C13.5281 22.6415 13.5281 21.9708 14.2441 19.4605C15.3497 15.5546 16.7997 13.6424 17.4884 12.9718C17.6063 12.8449 17.7422 12.8449 17.7331 13.0352L17.5338 17.8565C17.3525 22.723 18.2406 23.6202 19.5003 23.6202C20.47 23.6202 21.8384 22.6596 23.3066 20.2308L25.7534 16.1527L27.1853 17.4758C28.3453 18.5633 28.7259 19.6146 28.4722 20.6024C28.2819 21.3546 27.5478 22.143 26.2609 21.3818C25.8803 21.1552 25.7172 20.983 25.3456 20.7383C25.1372 20.6024 24.8291 20.5571 24.6388 20.7021C24.1584 21.0646 23.8775 21.5358 23.7234 22.1068C23.5694 22.6596 24.1312 22.9586 24.7112 23.2124C25.2097 23.439 26.2881 23.6383 26.9769 23.6655C29.6412 23.7561 31.78 22.3786 33.2662 18.8261C33.5381 21.8893 34.6709 23.6293 36.6375 23.6293C37.9516 23.6293 39.2747 21.9255 39.8547 20.258C40.0178 20.9377 40.2625 21.5268 40.5797 22.0343C42.1022 24.4358 45.0475 23.9102 46.5247 21.8711C46.9778 21.2458 47.0503 21.0193 47.0503 21.0193C47.0945 21.7054 47.3913 22.3509 47.8833 22.8311C48.3753 23.3114 49.0277 23.5925 49.7147 23.6202C50.7116 23.6202 51.7356 23.149 52.4606 21.5268C52.5422 21.708 52.6419 21.8711 52.7325 22.0343C54.255 24.4358 57.2003 23.9102 58.6775 21.8711L58.8588 21.6174L58.9041 22.8861L57.5447 24.1277C55.2609 26.2121 53.5209 27.798 53.3941 29.6468C53.2309 32.003 55.1431 32.873 56.5931 32.9908C57.3184 33.0269 58.0401 32.8687 58.6837 32.5326C59.3274 32.1964 59.8696 31.6945 60.2544 31.0786C60.9613 30.0365 61.4325 27.789 61.3962 25.5686L61.3419 22.3424C63.5127 19.8321 65.1803 16.9277 66.2537 13.7874C66.2537 13.7874 67.0966 13.7965 67.9937 13.7421C68.2837 13.724 68.3653 13.7783 68.3109 13.9868C68.2475 14.2405 67.1781 18.373 68.1569 21.128C68.8275 23.013 70.3319 23.6202 71.2381 23.6202C72.2803 23.6202 73.2862 22.8318 73.8209 21.6536L74.0294 22.0343C75.5519 24.4358 78.4881 23.9102 79.9744 21.8711C80.3097 21.418 80.5 21.0193 80.5 21.0193C80.8263 23.013 82.3759 23.6293 83.2641 23.6293C84.1884 23.6293 85.0766 23.2486 85.7834 21.563C85.8106 22.3061 85.8559 22.9133 85.9284 23.1036C85.9737 23.2215 86.2366 23.3755 86.4359 23.439C87.2788 23.7471 88.1397 23.6021 88.4659 23.5386C88.6834 23.4933 88.8556 23.3121 88.8828 22.859C88.9463 21.6536 88.91 19.6327 89.2725 18.1374C89.8797 15.609 90.4506 14.6302 90.7225 14.1499C90.8766 13.878 91.0487 13.8327 91.0578 14.1227C91.0669 14.7027 91.0941 16.4065 91.3297 18.6993C91.5109 20.3849 91.7466 21.3818 91.9188 21.6899C92.4353 22.5961 93.0697 22.6415 93.5772 22.6415C93.9034 22.6415 94.5922 22.5508 94.5287 21.9799C94.5016 21.699 94.5469 19.968 95.1631 17.4849C95.5528 15.8627 96.2053 14.4036 96.4409 13.8599C96.5316 13.6696 96.5769 13.8236 96.5769 13.8599C96.5225 14.9655 96.4137 18.6177 96.8669 20.6205C97.4831 23.3211 99.2684 23.6293 99.8937 23.6293C101.226 23.6293 102.313 22.6143 102.676 19.959C102.767 19.3246 102.631 18.8261 102.241 18.8261Z" fill="#262626"/>
</g>
<defs>
<clipPath id="clip0_10_4377">
<rect width="103" height="29" fill="white" transform="translate(0 4)"/>
</clipPath>
</defs>
</svg>
