<svg width="25" height="24" viewBox="0 0 25 24" fill="none" xmlns="http://www.w3.org/2000/svg">
<g clip-path="url(#clip0_10_3129)">
<path d="M12.5627 20.635C17.3317 20.635 21.1977 16.769 21.1977 12C21.1977 7.23101 17.3317 3.36499 12.5627 3.36499C7.79376 3.36499 3.92773 7.23101 3.92773 12C3.92773 16.769 7.79376 20.635 12.5627 20.635Z" stroke="#262626" stroke-width="2" stroke-linecap="round" stroke-linejoin="round"/>
<path d="M14.7945 3.656C14.6229 3.60803 14.4634 3.52447 14.3262 3.41075C14.1891 3.29704 14.0774 3.15572 13.9985 2.996L13.4925 2H11.6325L11.1275 2.996C11.0486 3.15572 10.9369 3.29704 10.7998 3.41075C10.6626 3.52447 10.5031 3.60803 10.3315 3.656M10.3305 20.344C10.5021 20.392 10.6616 20.4755 10.7988 20.5892C10.9359 20.703 11.0476 20.8443 11.1265 21.004L11.6315 22H13.4935L13.9985 21.004C14.0774 20.8443 14.1891 20.703 14.3262 20.5892C14.4634 20.4755 14.6229 20.392 14.7945 20.344M4.2185 9.768C4.17053 9.93958 4.08697 10.0991 3.97325 10.2363C3.85954 10.3734 3.71822 10.4851 3.5585 10.564L2.5625 11.07V12.932L3.5585 13.437C3.71822 13.5159 3.85954 13.6276 3.97325 13.7647C4.08697 13.9019 4.17053 14.0614 4.2185 14.233M20.9065 14.232C20.9545 14.0604 21.038 13.9009 21.1517 13.7637C21.2655 13.6266 21.4068 13.5149 21.5665 13.436L22.5625 12.93V11.07L21.5665 10.565C21.4068 10.4861 21.2655 10.3744 21.1517 10.2373C21.038 10.1001 20.9545 9.94058 20.9065 9.769M8.2405 4.522C8.08519 4.60944 7.91319 4.66318 7.73573 4.67972C7.55826 4.69626 7.3793 4.67523 7.2105 4.618L6.1505 4.27L4.8325 5.587L5.1805 6.649C5.23773 6.8178 5.25876 6.99676 5.24222 7.17423C5.22568 7.35169 5.17194 7.52369 5.0845 7.679M16.8845 19.478C17.0398 19.3906 17.2118 19.3368 17.3893 19.3203C17.5667 19.3037 17.7457 19.3248 17.9145 19.382L18.9745 19.73L20.2925 18.413L19.9445 17.351C19.8873 17.1822 19.8662 17.0032 19.8828 16.8258C19.8993 16.6483 19.9531 16.4763 20.0405 16.321M5.0845 16.322C5.17194 16.4773 5.22568 16.6493 5.24222 16.8268C5.25876 17.0042 5.23773 17.1832 5.1805 17.352L4.8325 18.412L6.1495 19.73L7.2115 19.382C7.3803 19.3248 7.55926 19.3037 7.73673 19.3203C7.91419 19.3368 8.08619 19.3906 8.2415 19.478M20.0405 7.678C19.9531 7.52269 19.8993 7.35069 19.8828 7.17323C19.8662 6.99576 19.8873 6.8168 19.9445 6.648L20.2925 5.588L18.9755 4.27L17.9135 4.618C17.7447 4.67523 17.5657 4.69626 17.3883 4.67972C17.2108 4.66318 17.0388 4.60944 16.8835 4.522" stroke="#262626" stroke-width="2" stroke-linejoin="round"/>
</g>
<defs>
<clipPath id="clip0_10_3129">
<rect width="24" height="24" fill="white" transform="translate(0.5625)"/>
</clipPath>
</defs>
</svg>
